<svg xmlns="http://www.w3.org/2000/svg" xmlns:xlink="http://www.w3.org/1999/xlink" width="1920" zoomAndPan="magnify" viewBox="0 0 1440 809.999993" height="1080" preserveAspectRatio="xMidYMid meet" version="1.0"><defs><g/></defs><g fill="#0097b2" fill-opacity="1"><g transform="translate(471.626934, 499.499995)"><g><path d="M 172.5 -94.25 L 172.5 0 L 140 0 L 140 -13 C 125.5 -2.664062 109.25 2.5 91.25 2.5 C 68.082031 2.5 48.332031 -5.664062 32 -22 C 15.664062 -38.332031 7.5 -58.082031 7.5 -81.25 C 7.5 -104.414062 15.664062 -124.164062 32 -140.5 C 48.332031 -156.832031 68.082031 -165 91.25 -165 C 111.914062 -165 130.082031 -158.332031 145.75 -145 L 120.75 -120.25 C 111.914062 -126.75 102.082031 -130 91.25 -130 C 77.582031 -130 66.164062 -125.25 57 -115.75 C 47.332031 -106.082031 42.5 -94.582031 42.5 -81.25 C 42.5 -67.914062 47.332031 -56.414062 57 -46.75 C 66.5 -37.25 77.914062 -32.5 91.25 -32.5 C 104.414062 -32.5 115.914062 -37.25 125.75 -46.75 C 126.082031 -47.082031 126.414062 -47.414062 126.75 -47.75 L 128 -49 C 129.164062 -50.332031 130.25 -51.582031 131.25 -52.75 C 134.082031 -56.25 136 -59.25 137 -61.75 L 99.5 -61.75 L 99.5 -94.25 Z M 139.75 -61.75 L 140 -61.5 L 140 -61.75 Z M 139.75 -61.75 "/></g></g></g><g fill="#0097b2" fill-opacity="1"><g transform="translate(651.624833, 499.499995)"><g><path d="M 113.75 -162.5 L 152.75 -162.5 L 152.75 0 L 45 -79.25 L 45 0 L 6 0 L 6 -162.5 L 113.75 -79.5 Z M 113.75 -162.5 "/></g></g></g><g fill="#0097b2" fill-opacity="1"><g transform="translate(810.372997, 499.499995)"><g><path d="M 69.25 -161.5 C 91.582031 -161.5 110.75 -153.582031 126.75 -137.75 C 142.582031 -121.914062 150.5 -102.75 150.5 -80.25 C 150.5 -57.914062 142.582031 -38.75 126.75 -22.75 C 110.75 -6.914062 91.582031 1 69.25 1 L 7.5 1 L 7.5 -161.5 Z M 100.25 -49.25 C 108.75 -57.75 113 -68.082031 113 -80.25 C 113 -92.25 108.75 -102.664062 100.25 -111.5 C 91.75 -120 81.332031 -124.25 69 -124.25 L 46.5 -124.25 L 46.5 -36.5 L 69.25 -36.5 C 81.414062 -36.5 91.75 -40.75 100.25 -49.25 Z M 100.25 -49.25 "/></g></g></g></svg>